<?xml version="1.0" standalone="no"?>
<!DOCTYPE svg PUBLIC "-//W3C//DTD SVG 20010904//EN"
 "http://www.w3.org/TR/2001/REC-SVG-20010904/DTD/svg10.dtd">
<svg version="1.0" xmlns="http://www.w3.org/2000/svg"
 width="360.000000pt" height="180.000000pt" viewBox="0 0 360.000000 180.000000"
 preserveAspectRatio="xMidYMid meet">
<metadata>
Created by potrace 1.10, written by Peter Selinger 2001-2011
</metadata>
<g transform="translate(0.000000,180.000000) scale(0.050000,-0.050000)"
fill="#56b8b7" stroke="none">
<path d="M1089 2595 c-5 -14 -18 -70 -30 -125 -11 -55 -30 -136 -41 -180 -11
-44 -28 -116 -38 -160 -10 -44 -28 -120 -40 -170 -12 -49 -30 -126 -40 -170
-17 -75 -30 -130 -81 -335 -12 -47 -26 -112 -32 -145 -5 -33 -17 -78 -27 -100
-9 -22 -21 -58 -26 -80 -5 -22 -15 -54 -23 -72 -11 -28 12 -31 196 -27 253 5
253 5 253 135 1 152 7 157 202 150 l168 -6 6 -120 c3 -66 15 -128 25 -139 19
-19 393 -24 412 -5 10 11 -13 117 -145 674 -28 116 -77 323 -110 460 -32 138
-68 278 -79 311 -10 34 -19 77 -19 95 0 44 -514 52 -531 9z m312 -505 c12
-110 31 -231 40 -270 10 -38 21 -101 24 -140 l5 -70 -108 -6 c-138 -8 -145 1
-112 146 15 66 31 161 37 210 50 447 76 476 114 130z m301 -573 c42 -205 43
-217 19 -217 -31 0 -180 161 -180 195 -1 14 19 57 44 94 55 84 90 63 117 -72z
m-573 52 c44 -68 39 -88 -50 -187 l-79 -87 0 106 c0 203 57 278 129 168z"/>
<path d="M3787 2475 l3 -145 194 -3 193 -2 6 139 c8 171 28 156 -205 156
l-195 0 4 -145z"/>
<path d="M2557 2228 c-28 -15 -63 -55 -77 -88 -33 -81 -56 -76 -64 14 l-6 75
-187 0 -187 1 7 -470 c3 -259 5 -526 4 -595 -1 -69 4 -126 11 -126 6 -1 93 -3
192 -5 l180 -4 -6 420 c-6 453 5 514 93 527 118 16 128 -24 120 -506 l-7 -439
198 0 198 0 -4 425 c-5 465 7 523 105 523 110 0 118 -38 110 -513 l-7 -435
195 -1 195 -1 0 516 c0 417 -6 527 -30 573 -95 184 -405 196 -530 21 -51 -71
-75 -76 -84 -16 -16 113 -278 178 -419 104z m322 -217 c27 -32 -13 -156 -46
-145 -32 10 -118 170 -104 193 14 23 119 -10 150 -48z m520 25 c25 -27 41 -71
41 -114 l0 -70 -62 84 c-81 110 -64 191 21 100z m-1079 -40 c0 -9 -9 -16 -20
-16 -11 0 -20 -13 -20 -30 0 -16 -9 -30 -20 -30 -11 0 -20 22 -20 49 0 36 10
48 40 46 22 -2 40 -11 40 -19z"/>
<path d="M4606 2233 c-188 -69 -286 -278 -286 -613 0 -438 130 -600 481 -600
356 0 499 131 499 456 l0 66 -175 -6 -175 -6 6 -90 c11 -147 -88 -243 -179
-174 -109 83 -103 677 7 736 96 51 159 -20 164 -182 2 -50 4 -50 182 -50 l180
0 -7 78 c-29 334 -352 512 -697 385z"/>
<path d="M5619 2205 c-117 -60 -170 -133 -191 -265 l-13 -80 169 0 169 0 18
75 c17 69 25 76 96 81 183 15 166 -210 -19 -245 -306 -57 -435 -145 -458 -311
-40 -294 58 -440 296 -439 151 0 175 11 249 106 46 60 57 53 69 -44 6 -44 14
-47 186 -51 l180 -5 -5 421 c-6 502 -23 609 -113 699 -129 128 -439 157 -633
58z m541 -492 c0 -127 -14 -147 -63 -90 -45 53 -46 84 -5 148 50 75 68 59 68
-58z m-160 -118 c-5 -274 -108 -411 -219 -291 -89 95 -32 231 121 287 91 33
98 33 98 4z"/>
<path d="M3799 2225 c0 -3 -1 -272 -1 -599 l-1 -594 191 -1 192 -1 0 600 0
600 -190 0 c-104 0 -190 -2 -191 -5z"/>
</g>
</svg>
